# xmcd
#
# Track frame offsets:
#	150
#	20569
#	36646
#	65674
#	94187
#	104402
#	119290
#	130801
#	148066
#	160157
#
# Disc length: 2750 seconds
#
# Revision: 1
# Processed by: cddbd v1.5.2PL0 Copyright (c) Steve Scherf et al.
# Submitted via: audiograbber 1.83.01
#
DISCID=920abc0a
DTITLE=Blind Lemon - Squeezin the Lemon
DYEAR=2016
DGENRE=Blues
TTITLE0=Colours
TTITLE1=Moon Struck Night
TTITLE2=At The Station
TTITLE3=Ocean Call
TTITLE4=My Lady
TTITLE5=Porcelain
TTITLE6=Rock This House
TTITLE7=Boogie Chicken
TTITLE8=Whats The Matter
TTITLE9=Some Influence
EXTD=
EXTT0=
EXTT1=
EXTT2=
EXTT3=
EXTT4=
EXTT5=
EXTT6=
EXTT7=
EXTT8=
EXTT9=
PLAYORDER=
